<svg width="112" height="112" viewBox="0 0 112 112" fill="none" xmlns="http://www.w3.org/2000/svg">
<rect width="112" height="112" rx="29.4795" fill="#FF8246"/>
<path fill-rule="evenodd" clip-rule="evenodd" d="M32.7516 30.4099H27.6267V20.1602H84.0001V79.0959L71.1879 91.908H27.6267V86.7832V76.5335H32.7516V86.7832H68.6255L78.8752 76.5335V25.285H32.7516V30.4099ZM68.6255 86.7832L78.8752 76.5335H68.6255L68.6255 86.7832ZM32.7516 71.4086H27.6267V50.9092V35.5347H32.7516V40.5139C35.6885 37.6879 39.9263 35.5347 45.5637 35.5347C57.8633 35.5347 58.3758 45.7844 58.3758 50.9092V71.4086H53.251V50.9092C53.251 50.7275 53.2524 50.5361 53.2539 50.3365C53.2808 46.785 53.3272 40.6595 45.5637 40.6595C37.3639 40.6595 32.7516 47.4927 32.7516 50.9092V71.4086Z" fill="black"/>
</svg>
